<svg width="42" height="41" viewBox="0 0 42 41" fill="none" xmlns="http://www.w3.org/2000/svg">
<path d="M41.3871 20.6774C41.3871 9.45357 32.2884 0.354843 21.0645 0.354843C9.84066 0.354843 0.741928 9.45357 0.741928 20.6774C0.741928 31.9013 9.84066 41 21.0645 41C32.2884 41 41.3871 31.9013 41.3871 20.6774Z" fill="white"/>
<path fill-rule="evenodd" clip-rule="evenodd" d="M31.0098 20.9084C31.0098 20.1879 30.9451 19.495 30.825 18.8299H21.2549V22.7605H26.7235C26.488 24.0307 25.7721 25.1069 24.6959 25.8274V28.377H27.9799C29.9013 26.608 31.0098 24.003 31.0098 20.9084Z" fill="#4285F4"/>
<path fill-rule="evenodd" clip-rule="evenodd" d="M21.2545 30.8387C23.9981 30.8387 26.2982 29.9288 27.9795 28.3769L24.6955 25.8273C23.7856 26.437 22.6217 26.7972 21.2545 26.7972C18.608 26.7972 16.3678 25.0098 15.5688 22.608H12.174V25.2407C13.846 28.5616 17.2824 30.8387 21.2545 30.8387Z" fill="#34A853"/>
<path fill-rule="evenodd" clip-rule="evenodd" d="M15.5692 22.608C15.366 21.9984 15.2505 21.3471 15.2505 20.6774C15.2505 20.0077 15.366 19.3564 15.5692 18.7467V16.114H12.1744C11.4862 17.4858 11.0936 19.0377 11.0936 20.6774C11.0936 22.317 11.4862 23.869 12.1744 25.2407L15.5692 22.608Z" fill="#FBBC05"/>
<path fill-rule="evenodd" clip-rule="evenodd" d="M21.2545 14.5576C22.7464 14.5576 24.0858 15.0702 25.1389 16.0771L28.0534 13.1627C26.2936 11.523 23.9934 10.5161 21.2545 10.5161C17.2824 10.5161 13.846 12.7932 12.174 16.1141L15.5688 18.7468C16.3678 16.345 18.608 14.5576 21.2545 14.5576Z" fill="#EA4335"/>
</svg>
