<svg width="41" height="41" viewBox="0 0 41 41" fill="none" xmlns="http://www.w3.org/2000/svg">
<path d="M0 20.325C0 9.09981 9.09981 0 20.325 0C31.5502 0 40.65 9.09981 40.65 20.325C40.65 31.5502 31.5502 40.65 20.325 40.65C9.09981 40.65 0 31.5502 0 20.325Z" fill="#1157FF"/>
<path d="M16.0742 13.9734C16.6608 13.9734 17.2024 14.0186 17.6988 14.1539C18.1952 14.2442 18.6013 14.4247 18.9623 14.6503C19.3234 14.876 19.5941 15.1919 19.7746 15.598C19.9551 16.0042 20.0454 16.5006 20.0454 17.0421C20.0454 17.6739 19.91 18.2154 19.5941 18.6215C19.3234 19.0277 18.8721 19.3887 18.3306 19.6595C19.0977 19.8851 19.6844 20.2913 20.0454 20.8328C20.4064 21.3743 20.632 22.0512 20.632 22.8184C20.632 23.4502 20.4967 23.9917 20.271 24.443C20.0454 24.8942 19.6844 25.3004 19.2782 25.5712C18.8721 25.8419 18.3757 26.0676 17.8342 26.2029C17.2926 26.3383 16.7511 26.4286 16.2096 26.4286H10.1625V13.9734H16.0742ZM15.7132 19.0277C16.2096 19.0277 16.6157 18.8923 16.9316 18.6667C17.2475 18.441 17.3829 18.0349 17.3829 17.5385C17.3829 17.2677 17.3378 16.997 17.2475 16.8165C17.1572 16.6359 17.0219 16.5006 16.8414 16.3652C16.6608 16.2749 16.4803 16.1847 16.2547 16.1395C16.0291 16.0944 15.8034 16.0944 15.5327 16.0944H12.9153V19.0277H15.7132ZM15.8485 24.3527C16.1193 24.3527 16.3901 24.3076 16.6157 24.2625C16.8414 24.2173 17.067 24.1271 17.2475 23.9917C17.428 23.8563 17.5634 23.7209 17.6988 23.4953C17.789 23.2697 17.8793 22.9989 17.8793 22.683C17.8793 22.0512 17.6988 21.6 17.3378 21.2841C16.9767 21.0133 16.4803 20.8779 15.8937 20.8779H12.9153V24.3527H15.8485ZM24.5581 24.3076C24.9191 24.6686 25.4607 24.8491 26.1827 24.8491C26.6791 24.8491 27.1304 24.7137 27.4914 24.4881C27.8524 24.2173 28.0781 23.9466 28.1683 23.6758H30.3795C30.0185 24.7589 29.477 25.526 28.755 26.0224C28.0329 26.4737 27.1755 26.7445 26.1376 26.7445C25.4155 26.7445 24.7838 26.6091 24.1971 26.3834C23.6104 26.1578 23.1592 25.8419 22.753 25.3906C22.3469 24.9845 22.031 24.4881 21.8505 23.9014C21.6248 23.3148 21.5346 22.683 21.5346 21.961C21.5346 21.2841 21.6248 20.6523 21.8505 20.0656C22.0761 19.479 22.392 18.9826 22.7982 18.5313C23.2043 18.1251 23.7007 17.7641 24.2422 17.5385C24.8289 17.3129 25.4155 17.1775 26.1376 17.1775C26.9047 17.1775 27.5817 17.3129 28.1683 17.6287C28.755 17.9446 29.2062 18.3057 29.5673 18.8472C29.9283 19.3436 30.199 19.9302 30.3795 20.562C30.4698 21.1938 30.5149 21.8256 30.4698 22.5476H23.9263C23.9263 23.2697 24.1971 23.9466 24.5581 24.3076ZM27.4011 19.5692C27.0853 19.2533 26.5889 19.0728 26.0022 19.0728C25.5961 19.0728 25.2802 19.1631 25.0094 19.2985C24.7386 19.4338 24.5581 19.6143 24.3776 19.7949C24.1971 19.9754 24.1068 20.201 24.0617 20.4266C24.0166 20.6523 23.9715 20.8328 23.9715 21.0133H28.0329C27.9427 20.3364 27.717 19.8851 27.4011 19.5692ZM23.4299 14.8309H28.4842V16.0493H23.4299V14.8309Z" fill="white"/>
</svg>
