<svg width="42" height="41" viewBox="0 0 42 41" fill="none" xmlns="http://www.w3.org/2000/svg">
<path fill-rule="evenodd" clip-rule="evenodd" d="M0.580643 20.6774C0.580643 9.45357 9.67937 0.354843 20.9032 0.354843C32.1271 0.354843 41.2258 9.45357 41.2258 20.6774C41.2258 31.9013 32.1271 41 20.9032 41C9.67937 41 0.580643 31.9013 0.580643 20.6774ZM10.7419 20.8902C10.7419 15.2969 15.2787 10.76 20.8721 10.76C26.4655 10.76 31.0023 15.2969 31.0645 20.8902C31.0645 25.3649 28.2056 29.156 24.166 30.5232C23.6688 30.5854 23.4824 30.2747 23.4824 30.0261V27.2294C23.4824 26.2971 23.1717 25.6757 22.7988 25.3649C25.0361 25.1163 27.3978 24.3084 27.3978 20.393C27.3978 19.2744 26.9627 18.3421 26.3413 17.6585C26.3461 17.639 26.353 17.6145 26.3611 17.5852C26.4562 17.242 26.7323 16.246 26.2169 14.9861C26.2169 14.9861 25.3468 14.7375 23.4202 16.0426C22.6123 15.8562 21.7422 15.7319 20.8721 15.7319C20.0021 15.7319 19.132 15.794 18.3241 16.0426C16.3974 14.7375 15.5274 14.9861 15.5274 14.9861C14.9781 16.3288 15.3278 17.3718 15.3994 17.5855L15.4031 17.5963C14.7194 18.3421 14.3465 19.2122 14.3465 20.3309C14.3465 24.2462 16.7082 25.1163 18.9456 25.3649C18.697 25.6135 18.3862 26.0486 18.3241 26.7322C17.7647 26.9808 16.3353 27.4158 15.4031 25.8621C15.4031 25.8621 14.8438 24.8677 13.8493 24.8056C13.8493 24.8056 12.855 24.8056 13.7872 25.4271C13.7872 25.4271 14.4709 25.7378 14.9059 26.9186C14.9059 26.9186 15.5274 28.9074 18.3241 28.2859V30.0261C18.3241 30.2747 18.1376 30.5854 17.6404 30.5232C13.6629 29.156 10.7419 25.3649 10.7419 20.8902Z" fill="white"/>
</svg>
