<svg width="41" height="41" viewBox="0 0 41 41" fill="none" xmlns="http://www.w3.org/2000/svg">
<path d="M0.161285 20.6774C0.161285 31.9013 9.26002 41 20.4839 41C31.7077 41 40.8064 31.9013 40.8064 20.6774C40.8064 9.45357 31.7077 0.354843 20.4839 0.354843C9.26002 0.354843 0.161285 9.45357 0.161285 20.6774Z" fill="#F00073"/>
<path d="M20.4839 12.0403C23.2782 12.0403 23.6593 12.0403 24.8024 12.0403C25.8185 12.0403 26.3266 12.2944 26.7077 12.4214C27.2157 12.6754 27.5968 12.8024 27.9778 13.1835C28.3589 13.5645 28.6129 13.9456 28.7399 14.4536C28.8669 14.8347 28.9939 15.3427 29.121 16.3589C29.121 17.502 29.121 17.7561 29.121 20.6774C29.121 23.5988 29.121 23.8528 29.121 24.996C29.121 26.0121 28.8669 26.5202 28.7399 26.9012C28.4859 27.4093 28.3589 27.7903 27.9778 28.1714C27.5968 28.5524 27.2157 28.8065 26.7077 28.9335C26.3266 29.0605 25.8185 29.1875 24.8024 29.3145C23.6593 29.3145 23.4052 29.3145 20.4839 29.3145C17.5625 29.3145 17.3085 29.3145 16.1653 29.3145C15.1492 29.3145 14.6411 29.0605 14.2601 28.9335C13.752 28.6794 13.371 28.5524 12.9899 28.1714C12.6089 27.7903 12.3548 27.4093 12.2278 26.9012C12.1008 26.5202 11.9738 26.0121 11.8468 24.996C11.8468 23.8528 11.8468 23.5988 11.8468 20.6774C11.8468 17.7561 11.8468 17.502 11.8468 16.3589C11.8468 15.3427 12.1008 14.8347 12.2278 14.4536C12.4819 13.9456 12.6089 13.5645 12.9899 13.1835C13.371 12.8024 13.752 12.5484 14.2601 12.4214C14.6411 12.2944 15.1492 12.1673 16.1653 12.0403C17.3085 12.0403 17.6895 12.0403 20.4839 12.0403ZM20.4839 10.1351C17.5625 10.1351 17.3085 10.1351 16.1653 10.1351C15.0222 10.1351 14.2601 10.3891 13.625 10.6432C12.9899 10.8972 12.3548 11.2782 11.7198 11.9133C11.0847 12.5484 10.8306 13.0565 10.4496 13.8186C10.1956 14.4536 10.0685 15.2157 9.94153 16.3589C9.94153 17.502 9.94153 17.8831 9.94153 20.6774C9.94153 23.5988 9.94153 23.8528 9.94153 24.996C9.94153 26.1391 10.1956 26.9012 10.4496 27.5363C10.7036 28.1714 11.0847 28.8065 11.7198 29.4415C12.3548 30.0766 12.8629 30.3307 13.625 30.7117C14.2601 30.9657 15.0222 31.0927 16.1653 31.2198C17.3085 31.2198 17.6895 31.2198 20.4839 31.2198C23.2782 31.2198 23.6593 31.2198 24.8024 31.2198C25.9456 31.2198 26.7077 30.9657 27.3427 30.7117C27.9778 30.4577 28.6129 30.0766 29.248 29.4415C29.8831 28.8065 30.1371 28.2984 30.5181 27.5363C30.7722 26.9012 30.8992 26.1391 31.0262 24.996C31.0262 23.8528 31.0262 23.4718 31.0262 20.6774C31.0262 17.8831 31.0262 17.502 31.0262 16.3589C31.0262 15.2157 30.7722 14.4536 30.5181 13.8186C30.2641 13.1835 29.8831 12.5484 29.248 11.9133C28.6129 11.2782 28.1048 11.0242 27.3427 10.6432C26.7077 10.3891 25.9456 10.2621 24.8024 10.1351C23.6593 10.1351 23.4052 10.1351 20.4839 10.1351Z" fill="white"/>
<path d="M20.4839 15.2157C17.4355 15.2157 15.0222 17.629 15.0222 20.6774C15.0222 23.7258 17.4355 26.1391 20.4839 26.1391C23.5323 26.1391 25.9456 23.7258 25.9456 20.6774C25.9456 17.629 23.5323 15.2157 20.4839 15.2157ZM20.4839 24.2339C18.5786 24.2339 16.9274 22.7097 16.9274 20.6774C16.9274 18.7722 18.4516 17.121 20.4839 17.121C22.3891 17.121 24.0403 18.6452 24.0403 20.6774C24.0403 22.5827 22.3891 24.2339 20.4839 24.2339Z" fill="white"/>
<path d="M26.0726 16.3589C26.7741 16.3589 27.3427 15.7902 27.3427 15.0887C27.3427 14.3872 26.7741 13.8186 26.0726 13.8186C25.3711 13.8186 24.8024 14.3872 24.8024 15.0887C24.8024 15.7902 25.3711 16.3589 26.0726 16.3589Z" fill="white"/>
</svg>
