<svg width="41" height="41" viewBox="0 0 41 41" fill="none" xmlns="http://www.w3.org/2000/svg">
<path d="M0 20.3226C0 31.5464 9.09873 40.6452 20.3226 40.6452C31.5464 40.6452 40.6452 31.5464 40.6452 20.3226C40.6452 9.09873 31.5464 0 20.3226 0C9.09873 0 0 9.09873 0 20.3226Z" fill="#0088CC"/>
<path d="M10.2882 19.9521C15.7435 17.5753 19.3812 16.0084 21.2013 15.2513C26.3982 13.0898 27.4781 12.7143 28.1819 12.7017C28.3367 12.6991 28.6828 12.7375 28.9071 12.9194C29.0964 13.0731 29.1485 13.2806 29.1734 13.4262C29.1983 13.5719 29.2293 13.9036 29.2047 14.1629C28.9231 17.1219 27.7045 24.3026 27.0846 27.6168C26.8222 29.0191 26.3057 29.4893 25.8057 29.5353C24.719 29.6353 23.8938 28.8171 22.8412 28.1272C21.1942 27.0475 20.2638 26.3755 18.6651 25.3219C16.8175 24.1044 18.0152 23.4352 19.0681 22.3416C19.3437 22.0554 24.1318 17.7003 24.2244 17.3052C24.236 17.2558 24.2468 17.0716 24.1374 16.9744C24.0279 16.8771 23.8664 16.9104 23.7499 16.9368C23.5847 16.9743 20.9536 18.7134 15.8566 22.154C15.1097 22.6669 14.4333 22.9167 13.8272 22.9036C13.159 22.8892 11.8737 22.5258 10.9183 22.2153C9.74636 21.8343 8.81495 21.6329 8.89605 20.9859C8.9383 20.649 9.40235 20.3043 10.2882 19.9521Z" fill="white"/>
</svg>
